<?xml version="1.0" encoding="utf-8"?>
<!-- Generator: Adobe Illustrator 23.0.1, SVG Export Plug-In . SVG Version: 6.00 Build 0)  -->
<svg version="1.1" xmlns="http://www.w3.org/2000/svg" xmlns:xlink="http://www.w3.org/1999/xlink" x="0px" y="0px"
	 viewBox="0 0 512 512" style="enable-background:new 0 0 512 512;" xml:space="preserve">
<g id="Layer_1">
	<path d="M320,416c0,8.8-7.2,16-16,16h-96c-8.8,0-16-7.2-16-16s7.2-16,16-16h96C312.8,400,320,407.2,320,416z M304,448h-96
		c-8.8,0-16,7.2-16,16s7.2,16,16,16c0,17.7,14.3,32,32,32h32c17.7,0,32-14.3,32-32c8.8,0,16-7.2,16-16S312.8,448,304,448z M256,32
		c70.6,0,128,57.4,128,128c0,45.6-24,86.8-64.1,110.2l-15.9,9.3v18.4V352h-96v-54.2v-18.4l-15.9-9.3C151.9,246.8,128,205.6,128,160
		C128,89.4,185.4,32,256,32 M256,0C167.6,0,96,71.6,96,160c0,59.1,32.4,110.1,80,137.8V352c0,17.7,14.3,32,32,32h96
		c17.7,0,32-14.3,32-32v-54.2c47.6-27.7,80-78.8,80-137.8C416,71.6,344.4,0,256,0L256,0z"/>
</g>
<g id="Layer_3">
</g>
</svg>
